<svg xmlns="http://www.w3.org/2000/svg" version="1.2" viewBox="0 0 800 800" preserveAspectRatio="xMidYMid meet" baseProfile="tiny-ps" xml:space="preserve"><title>StreamForge Logo</title>
<path d="M0 0 C264 0 528 0 800 0 C800 264 800 528 800 800 C536 800 272 800 0 800 C0 536 0 272 0 0 Z " fill="#000000" transform="translate(0,0)"/>
<path d="M0 0 C2.4322543 0.49397007 4.87066752 0.93733262 7.31347656 1.37597656 C17.91511721 3.32356552 28.10067696 5.90921834 38.27441406 9.46191406 C39.40943359 9.85467529 39.40943359 9.85467529 40.56738281 10.25537109 C51.44810412 14.05164233 61.93389164 18.37666462 72.27441406 23.46191406 C71.68281034 26.74267059 70.89655974 29.74512501 69.69555664 32.85327148 C69.37464554 33.68731003 69.05373444 34.52134857 68.72309875 35.38066101 C67.24492445 39.14808516 65.7629761 42.91383007 64.26538086 46.67358398 C63.47910207 48.65907231 62.70240701 50.64838245 61.93530273 52.64135742 C60.82634088 55.52152168 59.68867872 58.3887789 58.54394531 61.25488281 C58.20619583 62.1475737 57.86844635 63.04026459 57.52046204 63.96000671 C55.02065091 70.08258297 55.02065091 70.08258297 51.22460938 72.01220703 C42.71602995 73.30919506 42.71602995 73.30919506 38.09082031 70.59082031 C36.99614654 69.74823494 35.91193808 68.89193013 34.83691406 68.02441406 C12.54027476 51.20214144 -14.90365605 40.1000274 -43.18652344 43.93066406 C-53.80474099 46.22354394 -62.50657093 51.46881947 -68.72558594 60.46191406 C-71.50803872 66.26877203 -71.59356275 72.38448707 -69.66308594 78.46191406 C-61.36908438 97.8397177 -32.54368285 109.1738053 -15.33105469 118.65112305 C10.57897384 132.94996046 37.80457546 148.26528149 48.41113281 177.60644531 C51.58578915 191.78466161 50.35017807 207.30853134 44.27441406 220.46191406 C43.85160156 221.42871094 43.42878906 222.39550781 42.99316406 223.39160156 C39.45313537 230.656893 34.38703224 236.24869546 28.75439453 241.95800781 C27.70878423 243.02052174 26.6778512 244.09757512 25.65771484 245.18457031 C21.49977163 249.53070395 17.16709223 252.85621144 12.02441406 255.96191406 C11.25226563 256.43113281 10.48011719 256.90035156 9.68457031 257.38378906 C1.91100542 261.94027477 -6.21533551 265.05155174 -14.76513672 267.82324219 C-16.33366809 268.33423572 -17.88956184 268.88396 -19.44042969 269.44628906 C-50.09344604 280.00514882 -89.19058955 276.04063748 -119.72558594 267.46191406 C-120.8921875 267.17703125 -122.05878906 266.89214844 -123.26074219 266.59863281 C-143.10503528 261.69694127 -161.50117486 253.5917936 -179.72558594 244.46191406 C-179.13874851 238.65416348 -177.53126159 233.6768536 -175.45214844 228.23925781 C-175.12773773 227.37555069 -174.80332703 226.51184357 -174.46908569 225.6219635 C-173.78484421 223.80456448 -173.09716866 221.98845506 -172.40625 220.17358398 C-171.35363178 217.40741822 -170.31218275 214.63724645 -169.27246094 211.86621094 C-168.60384283 210.0944801 -167.9345931 208.32298747 -167.26464844 206.55175781 C-166.95516266 205.72973373 -166.64567688 204.90770966 -166.32681274 204.06077576 C-161.75630389 192.08576967 -161.75630389 192.08576967 -158.35058594 190.02441406 C-155.30354171 189.37147601 -153.70482721 189.56814168 -150.72558594 190.46191406 C-148.50683594 192.21191406 -148.50683594 192.21191406 -146.22558594 194.46191406 C-122.71650696 216.37598178 -88.59171155 231.27162254 -56.36621094 230.70800781 C-44.33181179 229.89452375 -34.51382988 225.81662072 -26.22558594 216.96191406 C-21.32314045 211.01176853 -20.17214593 205.90295453 -20.35839844 198.26660156 C-21.53746771 189.26051922 -28.01062954 183.88586003 -34.72558594 178.46191406 C-37.90982274 176.20511852 -41.19419757 174.16019079 -44.53808594 172.14941406 C-45.44679443 171.59455322 -46.35550293 171.03969238 -47.29174805 170.46801758 C-54.17909176 166.30012983 -61.19268874 162.39307553 -68.26708984 158.55419922 C-87.55765937 148.06070625 -106.86250779 136.81521465 -122.72558594 121.46191406 C-123.3559375 120.90503906 -123.98628906 120.34816406 -124.63574219 119.77441406 C-133.7374015 111.45289698 -140.04917735 98.85353481 -140.85205078 86.51904297 C-141.60139238 66.10545037 -137.13142112 47.71844701 -123.36230469 32.10253906 C-107.13779747 15.85399554 -87.01090246 5.60991751 -64.72558594 0.46191406 C-63.61062744 0.19942871 -63.61062744 0.19942871 -62.47314453 -0.06835938 C-42.28593593 -4.58421335 -20.2042622 -4.14836958 0 0 Z " fill="#FDFDFE" transform="translate(325.7255859375,214.5380859375)"/>
<path d="M0 0 C8.21443799 -0.17873847 16.1281955 0.30324376 24.27124023 1.35766602 C25.43631607 1.5024791 26.60139191 1.64729218 27.80177307 1.79649353 C31.6383082 2.27519743 35.47341879 2.76443432 39.30859375 3.25390625 C42.03409198 3.59725272 44.7598575 3.93845636 47.48561096 4.2797699 C53.21816551 4.99875404 58.95001223 5.72316412 64.68139648 6.45141602 C70.44487909 7.18373701 76.2088129 7.91231935 81.97338867 8.63598633 C82.67250063 8.72375544 83.37161259 8.81152456 84.09190977 8.90195334 C85.50062483 9.07878682 86.90934115 9.25561033 88.31805873 9.43242383 C100.83902892 11.00426556 113.35762174 12.59381305 125.87421489 14.20013547 C134.57659869 15.31662581 143.28154826 16.40804134 151.99049664 17.47213459 C156.98026025 18.08425966 161.96823384 18.71016191 166.95591927 19.33897209 C169.28136935 19.62884632 171.60760057 19.91252809 173.93459892 20.18969917 C177.10977841 20.56860573 180.28152718 20.96899428 183.45336914 21.37475586 C184.38566156 21.48041555 185.31795399 21.58607525 186.2784977 21.69493675 C192.46485235 22.51821718 192.46485235 22.51821718 195.10765076 24.8974762 C197.33808443 30.15275032 194.40326669 36.53206181 192.8125 41.75 C192.59762939 42.46792725 192.38275879 43.18585449 192.16137695 43.92553711 C189.53483842 52.64601958 186.77116946 61.32462069 184 70 C179.59604815 69.46533492 175.19432693 68.9143356 170.79345703 68.35498047 C168.87011239 68.11057013 166.94659933 67.86748265 165.02294922 67.62548828 C147.53453598 65.41227446 130.13158253 62.79765579 112.72174072 60.04016113 C95.52089104 57.32219391 78.29949911 54.99266219 61 53 C60.88519287 53.6398584 60.77038574 54.2797168 60.65209961 54.93896484 C57.80125535 70.75161055 54.71867917 86.4992463 51.41186523 102.22216797 C49.75682847 110.12086235 48.24285531 118.02398787 47 126 C48.03833984 126.11275269 48.03833984 126.11275269 49.09765625 126.2277832 C61.20127342 127.54638379 73.29907833 128.88367958 85.375 130.4375 C96.00682579 131.79824891 106.65624622 132.97497384 117.3125 134.125 C118.11040955 134.21135712 118.90831909 134.29771423 119.73040771 134.38668823 C122.04539023 134.63674121 124.36053779 134.88518803 126.67578125 135.1328125 C127.40510864 135.21119354 128.13443604 135.28957458 128.88586426 135.37033081 C133.90037744 135.90250108 138.9166224 136.34423563 143.94702148 136.69458008 C146 137 146 137 148.75 138.5625 C151.75668306 144.42553197 148.05564005 152.69523608 146.1875 158.625 C145.64637959 160.38257998 145.10601974 162.14039428 144.56640625 163.8984375 C144.30102051 164.75791992 144.03563477 165.61740234 143.76220703 166.50292969 C142.09111898 171.9775897 140.55075518 177.49025805 139 183 C127.82946602 183.47310497 116.94736544 181.56343585 106 179.5625 C88.58365794 176.40732218 70.99731561 174.61721035 53.38232422 173.00195312 C52.12049316 172.88529297 50.85866211 172.76863281 49.55859375 172.6484375 C47.87721313 172.49640869 47.87721313 172.49640869 46.16186523 172.34130859 C43.08047536 172.00868694 40.05101535 171.5412396 37 171 C36.97421875 171.55042969 36.9484375 172.10085938 36.921875 172.66796875 C36.47985016 179.14765105 35.39520714 185.39365948 34.125 191.75 C32.41750111 200.3376923 31.15009546 208.91870925 30.0769043 217.60668945 C29.2417453 224.3169956 28.21386078 230.96844884 27.05664062 237.62988281 C26.21189788 242.55307931 25.52643845 247.47746038 24.9375 252.4375 C24.28735019 257.88792259 23.47540086 263.25863884 22.44140625 268.6484375 C21.85831077 271.75483995 21.41766436 274.86751728 21 278 C16.43356689 278.07409888 12.10785792 277.8475622 7.58984375 277.1953125 C5.62893799 276.92122559 5.62893799 276.92122559 3.62841797 276.64160156 C2.53409454 276.48818298 2.53409454 276.48818298 1.41766357 276.33166504 C-3.29915552 275.68459238 -8.02312147 275.09236753 -12.74609375 274.4921875 C-14.83919312 274.22526367 -16.93229208 273.95833655 -19.02539062 273.69140625 C-21.16275922 273.41926141 -23.30012902 273.14712611 -25.4375 272.875 C-27.63346856 272.59509145 -29.82943214 272.31514382 -32.02539062 272.03515625 C-37.35020315 271.35632083 -42.6750767 270.67796587 -48 270 C-46.35537111 261.71005737 -44.6137858 253.44483538 -42.8125 245.1875 C-42.58681335 244.15061035 -42.58681335 244.15061035 -42.35656738 243.09277344 C-39.87526138 231.71615804 -37.22478419 220.39065157 -34.39770508 209.09448242 C-30.20527626 192.14617993 -27.67070814 174.92559319 -25 157.6875 C-24.65387604 155.46415686 -24.30752305 153.24084936 -23.9609375 151.01757812 C-23.28749988 146.69659304 -22.61510818 142.37544714 -21.94335938 138.05419922 C-20.75405679 130.41164398 -19.54778566 122.77179703 -18.33761597 115.13252258 C-17.72377076 111.25522148 -17.11199997 107.37759271 -16.5 103.5 C-15.77423128 98.90221773 -15.04838648 94.30444913 -14.3203125 89.70703125 C-12.81230183 80.17914562 -11.31876252 70.64903316 -9.83071899 61.11801147 C-9.17889834 56.94358045 -8.52651928 52.76923664 -7.87413025 48.59489441 C-7.43109763 45.75994769 -6.98830404 42.92496456 -6.54638672 40.08984375 C-4.46037175 26.71039709 -2.24318105 13.3539417 0 0 Z " fill="#FDFDFE" transform="translate(458,312)"/>
<path d="M0 0 C2.97 0 5.94 0 9 0 C9.17250309 5.43384742 8.90278569 10.07953045 7.58642578 15.33959961 C6.94133211 18.26615488 6.51857284 21.17459091 6.1171875 24.14453125 C5.33221369 29.76481207 4.47747143 35.36821142 3.5625 40.96875 C3.43575897 41.74491165 3.30901794 42.5210733 3.17843628 43.320755 C2.65539841 46.51569691 2.12989097 49.7102308 1.60449219 52.90478516 C0.12486718 61.91287435 -1.30494736 70.92017547 -2.57080078 79.96142578 C-3.14751432 84.04434771 -3.78445065 88.11620377 -4.4375 92.1875 C-4.66543161 93.61847891 -4.89329171 95.04946921 -5.12109375 96.48046875 C-5.31795776 97.71567261 -5.31795776 97.71567261 -5.51879883 98.97583008 C-7.16993112 109.35258081 -8.80728465 119.73130828 -10.40950012 130.11573792 C-11.07888004 134.45227276 -11.75164104 138.78828076 -12.42456055 143.12426758 C-12.76620766 145.33107054 -13.10637979 147.53810237 -13.44506836 149.74536133 C-16.2199055 167.81459748 -19.30659403 185.75709837 -23.75 203.5 C-25.61974655 211.11016407 -27.40423937 218.73475075 -29.09375 226.38671875 C-29.27246643 227.19613922 -29.45118286 228.00555969 -29.63531494 228.83950806 C-30.52387136 232.8722681 -31.40654504 236.90625628 -32.28417969 240.94140625 C-32.61129606 242.43360078 -32.93844311 243.92578859 -33.265625 245.41796875 C-33.41124878 246.09510422 -33.55687256 246.77223969 -33.70690918 247.46989441 C-34.57347785 251.41012417 -35.65736883 255.19600091 -37 259 C-36.17677246 259.04318359 -35.35354492 259.08636719 -34.50537109 259.13085938 C-23.80771091 259.76226317 -13.19309779 260.90513282 -2.55175781 262.15673828 C0.41795493 262.50503792 3.38858831 262.84458944 6.359375 263.18359375 C8.24745608 263.4031283 10.13547931 263.62316111 12.0234375 263.84375 C12.91179291 263.94482056 13.80014832 264.04589111 14.71542358 264.15002441 C20.88517202 264.88517202 20.88517202 264.88517202 22 266 C21.82153131 270.01266693 21.3787727 274.00184368 21 278 C11.81692035 277.42776751 2.72376187 276.56465293 -6.3984375 275.37109375 C-8.19989731 275.1401577 -8.19989731 275.1401577 -10.03775024 274.90455627 C-13.81731543 274.41919672 -17.59615737 273.92845009 -21.375 273.4375 C-23.96089129 273.10445872 -26.54682844 272.77177333 -29.1328125 272.43945312 C-35.42241012 271.63040824 -41.71142551 270.81695737 -48 270 C-46.35537162 261.71005994 -44.61392075 253.44480452 -42.8125 245.1875 C-42.58631485 244.14861633 -42.58631485 244.14861633 -42.3555603 243.08874512 C-40.14154417 232.94094167 -37.78563311 222.8381513 -35.3125 212.75 C-31.54102649 197.28789135 -28.27069406 181.9953689 -26.35449219 166.19091797 C-24.45449246 150.99340055 -21.77627635 135.90027793 -19.27888489 120.79212952 C-17.93190613 112.62660516 -16.63893677 104.45303359 -15.35787964 96.27694702 C-15.01602107 94.10193127 -14.67094458 91.9274574 -14.32446289 89.75317383 C-12.82088142 80.30653159 -11.35978882 70.85362034 -9.91407394 61.39796066 C-9.58927594 59.27363002 -9.26422706 57.1493379 -8.93911743 55.02505493 C-7.59685307 46.25367432 -7.59685307 46.25367432 -6.25854492 37.48168945 C-5.70594058 33.85441014 -5.15107471 30.22748283 -4.59475899 26.60077095 C-4.38624935 25.23873947 -4.17854571 23.87658432 -3.97172356 22.51429558 C-2.82523358 14.96513683 -1.56647684 7.47387371 0 0 Z " fill="#455BBB" transform="translate(447,323)"/>
<path d="M0 0 C0.66 0.33 1.32 0.66 2 1 C1.61328125 1.60585937 1.2265625 2.21171875 0.828125 2.8359375 C-6.87447897 15.22874091 -10.12510152 26.63980053 -10.25 41.1875 C-10.2593457 41.93580078 -10.26869141 42.68410156 -10.27832031 43.45507812 C-10.20192648 56.77111065 -4.84598817 69.17694016 4 79 C4.68449219 79.77730469 5.36898437 80.55460937 6.07421875 81.35546875 C21.09006995 97.39107215 41.79448717 107.90291295 60.77270508 118.49682617 C105.29306728 143.40219435 105.29306728 143.40219435 110 157 C110.93113649 164.3686233 110.13891092 170.74615108 106 177 C103.49398152 179.85992186 100.83823724 182.4717644 98 185 C96.875 181.25 96.875 181.25 98 179 C98.94421714 171.10904249 97.92116828 165.29722956 93 159 C82.40383342 147.14349642 66.18312172 139.92814948 52.50195312 132.31835938 C32.60018353 121.23246116 12.47485719 109.94541944 -4 94 C-4.63035156 93.443125 -5.26070312 92.88625 -5.91015625 92.3125 C-15.01181556 83.99098292 -21.32359141 71.39162074 -22.12646484 59.05712891 C-22.94555751 36.74337518 -17.24232164 18.5072446 -2 2 C-1.34 1.34 -0.68 0.68 0 0 Z " fill="#465DBE" transform="translate(196,253)"/>
<path d="M0 0 C-2.51858503 9.1556869 -5.95746143 17.94179961 -9.38964844 26.78198242 C-10.13023229 28.69325111 -10.86602805 30.60631487 -11.6015625 32.51953125 C-12.03807129 33.64464111 -12.47458008 34.76975098 -12.92431641 35.92895508 C-13.87036795 38.62990433 -14.52923236 41.18294484 -15 44 C-14.16082031 44.25652344 -13.32164062 44.51304687 -12.45703125 44.77734375 C-9.41039814 45.85485354 -6.58822572 47.12355338 -3.69946289 48.56323242 C18.40349358 59.54095367 42.60951701 67.21351382 67 71 C68.26714844 71.20625 69.53429687 71.4125 70.83984375 71.625 C105.75076512 76.69476893 148.77711562 74.60588527 178.359375 53.30078125 C179.17148437 52.65689453 179.17148437 52.65689453 180 52 C180.66 52.33 181.32 52.66 182 53 C162.72159162 74.62943379 130.91814338 83.32548486 103 85 C79.45065887 85.89025718 56.71964003 84.3830205 34 78 C32.25009766 77.57267578 32.25009766 77.57267578 30.46484375 77.13671875 C10.62055066 72.2350272 -7.77558892 64.12987953 -26 55 C-25.41316257 49.19224942 -23.80567565 44.21493954 -21.7265625 38.77734375 C-21.40215179 37.91363663 -21.07774109 37.0499295 -20.74349976 36.16004944 C-20.05925827 34.34265042 -19.37158272 32.52654099 -18.68066406 30.71166992 C-17.62804585 27.94550415 -16.58659681 25.17533239 -15.546875 22.40429688 C-14.8782569 20.63256603 -14.20900716 18.8610734 -13.5390625 17.08984375 C-13.22957672 16.26781967 -12.92009094 15.44579559 -12.60122681 14.59886169 C-7.99674228 2.53483732 -7.99674228 2.53483732 -4.4375 0.625 C-2 0 -2 0 0 0 Z " fill="#455CBC" transform="translate(161,415)"/>
<path d="M0 0 C8.21663406 -0.28957301 16.14183407 0.82725841 24.25 2 C25.79504711 2.21885235 27.34013304 2.43743073 28.88525391 2.65576172 C45.62152303 5.03664046 62.33377984 7.58789261 79.04394531 10.14453125 C92.67971914 12.22663432 106.32643267 14.18220582 120 16 C120 16.33 120 16.66 120 17 C118.35 17 116.7 17 115 17 C114.86722656 17.62648438 114.73445312 18.25296875 114.59765625 18.8984375 C114.42105469 19.71570313 114.24445313 20.53296875 114.0625 21.375 C113.88847656 22.18710937 113.71445312 22.99921875 113.53515625 23.8359375 C113 26 113 26 112 28 C107.59604815 27.46533492 103.19432693 26.9143356 98.79345703 26.35498047 C96.87011239 26.11057013 94.94659933 25.86748265 93.02294922 25.62548828 C74.31046437 23.25736434 55.68426612 20.45293732 37.06176758 17.4621582 C28.39610579 16.0794993 19.73678532 14.77254607 11.015625 13.7890625 C9.92879425 13.66535782 9.92879425 13.66535782 8.82000732 13.53915405 C4.82368082 13.11202011 1.04323047 13 -3 13 C-2.01 8.71 -1.02 4.42 0 0 Z " fill="#465CBC" transform="translate(519,365)"/>
<path d="M0 0 C3.16732773 2.38866506 5.62888035 3.77362505 9.60302734 4.18652344 C9.06563678 5.84072566 8.49716726 7.48485639 7.91552734 9.12402344 C7.60228516 10.04054688 7.28904297 10.95707031 6.96630859 11.90136719 C5.60302734 14.18652344 5.60302734 14.18652344 3.39599609 15.00292969 C2.47431641 15.06351562 1.55263672 15.12410156 0.60302734 15.18652344 C-0.52232422 15.29867187 -1.64767578 15.41082031 -2.80712891 15.52636719 C-7.1845933 15.11196087 -9.52717059 13.4179291 -12.83447266 10.74902344 C-34.22555152 -5.39002583 -60.21660855 -16.17864509 -87.39697266 -13.81347656 C-93.36184668 -12.81399176 -98.81733506 -11.11745618 -104.39697266 -8.81347656 C-100.77599264 -17.00549572 -93.2879142 -20.67943897 -85.32666016 -23.86816406 C-56.34519622 -33.21951643 -22.61049345 -17.37281559 0 0 Z " fill="#455CBD" transform="translate(362.39697265625,282.8134765625)"/>
<path d="M0 0 C12.78761619 0.5528735 25.4220433 1.6973446 38.125 3.25 C39.02289246 3.35782806 39.92078491 3.46565613 40.84588623 3.57675171 C57.96573947 5.63645508 74.99356362 8.15706208 92 11 C93.13905625 15.611983 92.50576582 18.48270255 91 23 C79.82968944 23.47309551 68.94709712 21.56409903 58 19.5625 C38.16114077 15.95730041 18.04271062 14.07643071 -2 12 C-1.34 8.04 -0.68 4.08 0 0 Z " fill="#465DBD" transform="translate(495,483)"/>
<path d="M0 0 C0.66 0.33 1.32 0.66 2 1 C-1.625 5.875 -1.625 5.875 -5 7 C-3.70700306 4.11562221 -2.34058637 2.12780579 0 0 Z " fill="#4356A7" transform="translate(196,253)"/>
</svg>
